# xmcd
#
# Track frame offsets:
#	150
#	18781
#	36782
#	50323
#	69868
#	85721
#	100177
#	117584
#	131125
#	149756
#	167757
#	181298
#	200843
#	216696
#	231152
#	248559
#
# Disc length: 3494 seconds
#
# Revision: 2
# Processed by: cddbd v1.5.2PL0 Copyright (c) Steve Scherf et al.
# Submitted via: audiograbber 1.83.01
#
DISCID=e80da410
DTITLE=Various Artist - KBA28212
DYEAR=1900
DGENRE=Country
TTITLE0=McGraw, Tim - The Cowboy In Me
TTITLE1=McGraw, Tim - Grown Men Don't Cry
TTITLE2=McGraw, Tim - Indian Outlaw
TTITLE3=McGraw, Tim - Don't Take The Girl
TTITLE4=Keith, Toby - My List
TTITLE5=Keith, Toby - I Wanna Talk About Me
TTITLE6=Keith, Toby - Should've Been A Cowboy
TTITLE7=Keith, Toby - A Little Less Talk And A Lot More Action
TTITLE8=McGraw, Tim - The Cowboy In Me (vocal)
TTITLE9=McGraw, Tim - Grown Men Don't Cry (vocal)
TTITLE10=McGraw, Tim - Indian Outlaw (vocal)
TTITLE11=McGraw, Tim - Don't Take The Girl (vocal)
TTITLE12=Keith, Toby - My List (vocal)
TTITLE13=Keith, Toby - I Wanna Talk About Me (vocal)
TTITLE14=Keith, Toby - Should've Been A Cowboy (vocal)
TTITLE15=Keith, Toby - A Little Less Talk And A Lot More Action (vocal)
EXTD=
EXTT0=
EXTT1=
EXTT2=
EXTT3=
EXTT4=
EXTT5=
EXTT6=
EXTT7=
EXTT8=
EXTT9=
EXTT10=
EXTT11=
EXTT12=
EXTT13=
EXTT14=
EXTT15=
PLAYORDER=
